<svg version="1.1" id="Layer_1" xmlns="http://www.w3.org/2000/svg" xmlns:xlink="http://www.w3.org/1999/xlink" x="0px" y="0px"
	 width="100%" viewBox="0 0 257 216" enable-background="new 0 0 257 216" xml:space="preserve">
<path fill="#FFFFFF" opacity="1.000000" stroke="none" 
	d="
M180.000000,217.000000 
	C120.000000,217.000000 60.500008,217.000000 1.000008,217.000000 
	C1.000005,145.000015 1.000005,73.000015 1.000003,1.000018 
	C86.666656,1.000012 172.333313,1.000012 258.000000,1.000006 
	C258.000000,72.999985 258.000000,144.999969 258.000000,216.999969 
	C232.166672,217.000000 206.333328,217.000000 180.000000,217.000000 
M175.661560,39.843903 
	C174.483841,42.740829 173.306122,45.637756 171.939545,48.999226 
	C168.274307,48.999226 163.956161,49.074841 159.641891,48.978222 
	C155.217697,48.879143 153.203445,51.094524 153.171585,55.346214 
	C153.138306,59.785698 153.164154,64.225624 153.164154,68.667328 
	C139.566513,68.667328 126.511551,68.667328 113.169731,68.667328 
	C113.169731,64.365776 113.197807,60.391357 113.163231,56.417484 
	C113.109917,50.289955 111.910042,49.060459 105.913910,49.005192 
	C101.790855,48.967182 97.667175,48.997898 93.362144,48.997898 
	C93.251564,46.876976 93.675072,44.963387 92.959457,43.689899 
	C91.953766,41.900204 90.151291,39.323788 88.604851,39.263672 
	C73.395889,38.672462 72.825943,37.635815 73.173027,52.869137 
	C73.271805,57.204456 75.527451,59.151085 79.857872,59.028301 
	C84.147507,58.906670 88.443291,59.001694 93.162910,59.001694 
	C93.162910,62.543026 93.162910,65.663834 93.162910,68.784637 
	C93.162910,72.065224 93.162910,75.345810 93.162910,78.998016 
	C88.550392,78.998016 84.418640,78.958191 80.287964,79.007812 
	C74.775902,79.074028 73.268112,80.587570 73.176521,86.199966 
	C73.109261,90.322075 73.163338,94.446167 73.163338,98.722565 
	C69.671196,98.722565 66.611542,98.722565 63.166016,98.722565 
	C63.166016,92.991722 63.098312,87.526009 63.179234,82.062492 
	C63.387295,68.014618 63.496445,68.944351 49.062019,68.998512 
	C45.105209,69.013359 43.224579,71.201958 43.202541,74.926552 
	C43.127613,87.589676 43.133205,100.253677 43.190071,112.916969 
	C43.208023,116.915222 45.226974,119.072357 49.405373,119.013817 
	C53.860439,118.951408 58.317062,118.999763 63.163345,118.999763 
	C63.163345,126.918228 63.107338,134.374405 63.181732,141.829269 
	C63.237495,147.417557 64.790688,148.929337 70.317177,148.992325 
	C74.566872,149.040771 78.817551,149.001984 83.162949,149.001984 
	C83.162949,156.749222 83.145073,163.745605 83.168015,170.741837 
	C83.190720,177.663376 84.480644,178.979126 91.228996,178.998322 
	C97.560760,179.016327 103.892609,179.002182 110.224419,179.002197 
	C123.705490,179.002197 123.650139,178.968903 123.213814,165.273102 
	C123.072350,160.832428 121.113869,158.902466 116.770203,158.981262 
	C112.333305,159.061752 107.893814,158.999084 103.523277,158.999084 
	C103.523277,155.308243 103.523277,152.253632 103.523277,149.213150 
	C123.493813,149.213150 143.106354,149.213150 162.926666,149.213150 
	C162.926666,152.482910 162.926666,155.540726 162.926666,158.997803 
	C160.400162,158.997803 158.103424,158.997787 155.806702,158.997818 
	C143.054886,158.997940 142.671356,159.397751 143.164047,172.178024 
	C143.366226,177.422531 144.866318,178.952209 150.165756,178.986710 
	C158.829971,179.043106 167.495071,179.041321 176.159317,178.988174 
	C181.862335,178.953186 183.114502,177.662262 183.153488,171.836594 
	C183.203369,164.382507 183.165588,156.927826 183.165588,149.666275 
	C183.905502,149.337891 184.192444,149.102646 184.483002,149.098099 
	C187.813248,149.045868 191.143997,149.014084 194.474716,149.005127 
	C202.325668,148.984009 203.150314,148.194290 203.163406,140.522491 
	C203.175522,133.423996 203.166000,126.325470 203.166000,119.001846 
	C207.981674,119.001846 212.135834,119.046692 216.288620,118.990761 
	C221.761002,118.917053 223.114075,117.631813 223.146881,112.207474 
	C223.210358,101.710381 223.165894,91.212639 223.165985,80.715164 
	C223.166092,68.932167 223.166000,68.932167 211.214035,68.997803 
	C204.479843,69.034782 203.189880,70.342125 203.167938,77.273140 
	C203.145416,84.386635 203.162949,91.500252 203.162949,98.695282 
	C199.615784,98.695282 196.557907,98.695282 193.163696,98.695282 
	C193.163696,94.097046 193.064224,89.790474 193.190460,85.490540 
	C193.329041,80.770203 191.051300,78.846046 186.485275,78.972984 
	C182.199432,79.092133 177.907654,78.998512 173.166016,78.998512 
	C173.166016,75.420502 173.166016,72.296249 173.166016,69.171989 
	C173.166016,65.891495 173.166016,62.610996 173.166016,58.999020 
	C178.199844,58.999020 182.670822,59.004833 187.141754,58.997051 
	C190.321838,58.991516 192.949051,57.958652 193.040527,54.350060 
	C193.446716,38.328026 194.362671,38.795937 179.854294,39.013775 
	C178.701279,39.031086 177.551575,39.268948 175.661560,39.843903 
z"/>
<path fill="#223251" opacity="1.000000" stroke="none" 
	d="
M176.030945,39.624107 
	C177.551575,39.268948 178.701279,39.031086 179.854294,39.013775 
	C194.362671,38.795937 193.446716,38.328026 193.040527,54.350060 
	C192.949051,57.958652 190.321838,58.991516 187.141754,58.997051 
	C182.670822,59.004833 178.199844,58.999020 173.166016,58.999020 
	C173.166016,62.610996 173.166016,65.891495 173.166016,69.171989 
	C173.166016,72.296249 173.166016,75.420502 173.166016,78.998512 
	C177.907654,78.998512 182.199432,79.092133 186.485275,78.972984 
	C191.051300,78.846046 193.329041,80.770203 193.190460,85.490540 
	C193.064224,89.790474 193.163696,94.097046 193.163696,98.695282 
	C196.557907,98.695282 199.615784,98.695282 203.162949,98.695282 
	C203.162949,91.500252 203.145416,84.386635 203.167938,77.273140 
	C203.189880,70.342125 204.479843,69.034782 211.214035,68.997803 
	C223.166000,68.932167 223.166092,68.932167 223.165985,80.715164 
	C223.165894,91.212639 223.210358,101.710381 223.146881,112.207474 
	C223.114075,117.631813 221.761002,118.917053 216.288620,118.990761 
	C212.135834,119.046692 207.981674,119.001846 203.166000,119.001846 
	C203.166000,126.325470 203.175522,133.423996 203.163406,140.522491 
	C203.150314,148.194290 202.325668,148.984009 194.474716,149.005127 
	C191.143997,149.014084 187.813248,149.045868 184.483002,149.098099 
	C184.192444,149.102646 183.905502,149.337891 183.165588,149.666275 
	C183.165588,156.927826 183.203369,164.382507 183.153488,171.836594 
	C183.114502,177.662262 181.862335,178.953186 176.159317,178.988174 
	C167.495071,179.041321 158.829971,179.043106 150.165756,178.986710 
	C144.866318,178.952209 143.366226,177.422531 143.164047,172.178024 
	C142.671356,159.397751 143.054886,158.997940 155.806702,158.997818 
	C158.103424,158.997787 160.400162,158.997803 162.926666,158.997803 
	C162.926666,155.540726 162.926666,152.482910 162.926666,149.213150 
	C143.106354,149.213150 123.493813,149.213150 103.523277,149.213150 
	C103.523277,152.253632 103.523277,155.308243 103.523277,158.999084 
	C107.893814,158.999084 112.333305,159.061752 116.770203,158.981262 
	C121.113869,158.902466 123.072350,160.832428 123.213814,165.273102 
	C123.650139,178.968903 123.705490,179.002197 110.224419,179.002197 
	C103.892609,179.002182 97.560760,179.016327 91.228996,178.998322 
	C84.480644,178.979126 83.190720,177.663376 83.168015,170.741837 
	C83.145073,163.745605 83.162949,156.749222 83.162949,149.001984 
	C78.817551,149.001984 74.566872,149.040771 70.317177,148.992325 
	C64.790688,148.929337 63.237495,147.417557 63.181732,141.829269 
	C63.107338,134.374405 63.163345,126.918228 63.163345,118.999763 
	C58.317062,118.999763 53.860439,118.951408 49.405373,119.013817 
	C45.226974,119.072357 43.208023,116.915222 43.190071,112.916969 
	C43.133205,100.253677 43.127613,87.589676 43.202541,74.926552 
	C43.224579,71.201958 45.105209,69.013359 49.062019,68.998512 
	C63.496445,68.944351 63.387295,68.014618 63.179234,82.062492 
	C63.098312,87.526009 63.166016,92.991722 63.166016,98.722565 
	C66.611542,98.722565 69.671196,98.722565 73.163338,98.722565 
	C73.163338,94.446167 73.109261,90.322075 73.176521,86.199966 
	C73.268112,80.587570 74.775902,79.074028 80.287964,79.007812 
	C84.418640,78.958191 88.550392,78.998016 93.162910,78.998016 
	C93.162910,75.345810 93.162910,72.065224 93.162910,68.784637 
	C93.162910,65.663834 93.162910,62.543026 93.162910,59.001694 
	C88.443291,59.001694 84.147507,58.906670 79.857872,59.028301 
	C75.527451,59.151085 73.271805,57.204456 73.173027,52.869137 
	C72.825943,37.635815 73.395889,38.672462 88.604851,39.263672 
	C90.151291,39.323788 91.953766,41.900204 92.959457,43.689899 
	C93.675072,44.963387 93.251564,46.876976 93.362144,48.997898 
	C97.667175,48.997898 101.790855,48.967182 105.913910,49.005192 
	C111.910042,49.060459 113.109917,50.289955 113.163231,56.417484 
	C113.197807,60.391357 113.169731,64.365776 113.169731,68.667328 
	C126.511551,68.667328 139.566513,68.667328 153.164154,68.667328 
	C153.164154,64.225624 153.138306,59.785698 153.171585,55.346214 
	C153.203445,51.094524 155.217697,48.879143 159.641891,48.978222 
	C163.956161,49.074841 168.274307,48.999226 171.939545,48.999226 
	C173.306122,45.637756 174.483841,42.740829 176.030945,39.624107 
M107.090469,129.002609 
	C111.564835,129.089935 113.319847,126.719803 113.191177,122.449974 
	C113.086235,118.967590 113.121872,115.478683 113.180115,111.994080 
	C113.413933,98.005859 113.430054,98.948616 99.094963,98.993942 
	C95.170517,99.006348 93.315193,101.131233 93.195969,104.851662 
	C93.079063,108.499527 93.158066,112.153801 93.157593,115.805260 
	C93.155884,129.005005 93.156914,129.005005 107.090469,129.002609 
M155.670944,99.837570 
	C154.887192,101.049202 153.465637,102.239998 153.425293,103.475906 
	C153.198029,110.436638 152.949417,117.438805 153.547897,124.354164 
	C153.693878,126.040985 157.064835,128.824860 158.825531,128.730316 
	C163.562378,128.475967 169.389694,131.666397 172.815842,125.661339 
	C173.337418,124.747139 173.140503,123.385063 173.157455,122.228409 
	C173.198822,119.406166 173.169617,116.582901 173.170807,113.760048 
	C173.177490,97.974472 172.419525,97.324677 155.670944,99.837570 
z"/>
<path fill="#FCFCFC" opacity="1.000000" stroke="none" 
	d="
M106.640762,129.003510 
	C93.156914,129.005005 93.155884,129.005005 93.157593,115.805260 
	C93.158066,112.153801 93.079063,108.499527 93.195969,104.851662 
	C93.315193,101.131233 95.170517,99.006348 99.094963,98.993942 
	C113.430054,98.948616 113.413933,98.005859 113.180115,111.994080 
	C113.121872,115.478683 113.086235,118.967590 113.191177,122.449974 
	C113.319847,126.719803 111.564835,129.089935 106.640762,129.003510 
z"/>
<path fill="#FCFCFC" opacity="1.000000" stroke="none" 
	d="
M156.040924,99.616730 
	C172.419525,97.324677 173.177490,97.974472 173.170807,113.760048 
	C173.169617,116.582901 173.198822,119.406166 173.157455,122.228409 
	C173.140503,123.385063 173.337418,124.747139 172.815842,125.661339 
	C169.389694,131.666397 163.562378,128.475967 158.825531,128.730316 
	C157.064835,128.824860 153.693878,126.040985 153.547897,124.354164 
	C152.949417,117.438805 153.198029,110.436638 153.425293,103.475906 
	C153.465637,102.239998 154.887192,101.049202 156.040924,99.616730 
z"/>
</svg>